<?xml version="1.0" encoding="UTF-8" standalone="no"?>
<!DOCTYPE svg PUBLIC "-//W3C//DTD SVG 1.1//EN" "http://www.w3.org/Graphics/SVG/1.1/DTD/svg11.dtd">
<svg width="100%" height="100%" viewBox="0 0 1044 543" version="1.1" xmlns="http://www.w3.org/2000/svg" xmlns:xlink="http://www.w3.org/1999/xlink" xml:space="preserve" xmlns:serif="http://www.serif.com/" style="fill-rule:evenodd;clip-rule:evenodd;stroke-linecap:round;stroke-linejoin:round;stroke-miterlimit:1.5;">
    <g transform="matrix(1,0,0,1,-2547.93,-316.052)">
        <g transform="matrix(1,0,0,1,2479.3,5.68434e-14)">
            <g transform="matrix(0.0620385,0.0384638,-0.0391549,0.063153,775.23,101.265)">
                <g transform="matrix(2.10534,1.47822e-16,0,1.91965,-459.71,-5782.78)">
                    <ellipse cx="1218.92" cy="5736.26" rx="208.91" ry="130.276" style="fill:rgb(47,127,59);"/>
                </g>
                <g transform="matrix(1.40078,0,0,1.30107,-1539.52,-2942.16)">
                    <path d="M2596.08,3893.74C2596.08,3893.74 3402.44,4711.12 3402.44,5256.04C3402.44,5726.73 3041.12,6108.88 2596.08,6108.88C2151.03,6108.88 1789.72,5726.73 1789.72,5256.04C1789.72,4711.12 2596.08,3893.74 2596.08,3893.74Z" style="fill:rgb(47,127,59);"/>
                </g>
                <g transform="matrix(0.758336,0,0,0.758336,307.729,996.121)">
                    <circle cx="1114.76" cy="4244.37" r="80.322" style="fill:rgb(47,127,59);stroke:rgb(212,215,213);stroke-width:26.47px;"/>
                </g>
                <g transform="matrix(0.758336,0,0,0.758336,373.863,1177.53)">
                    <circle cx="1114.76" cy="4244.37" r="80.322" style="fill:rgb(47,127,59);stroke:rgb(212,215,213);stroke-width:26.47px;"/>
                </g>
                <g transform="matrix(0.758336,0,0,0.758336,486.57,1330.56)">
                    <circle cx="1114.76" cy="4244.37" r="80.322" style="fill:rgb(47,127,59);stroke:rgb(212,215,213);stroke-width:26.47px;"/>
                </g>
                <g transform="matrix(0.758336,0,0,0.758336,626.755,1451.03)">
                    <circle cx="1114.76" cy="4244.37" r="80.322" style="fill:rgb(47,127,59);stroke:rgb(212,215,213);stroke-width:26.47px;"/>
                </g>
                <g transform="matrix(0.758336,0,0,0.758336,783.242,1545.74)">
                    <circle cx="1114.76" cy="4244.37" r="80.322" style="fill:rgb(47,127,59);stroke:rgb(212,215,213);stroke-width:26.47px;"/>
                </g>
                <g transform="matrix(0.758336,0,0,0.758336,945.938,1620.83)">
                    <circle cx="1114.76" cy="4244.37" r="80.322" style="fill:rgb(47,127,59);stroke:rgb(212,215,213);stroke-width:26.47px;"/>
                </g>
                <g transform="matrix(0.758336,0,0,0.758336,1127.4,1652.94)">
                    <circle cx="1114.76" cy="4244.37" r="80.322" style="fill:rgb(47,127,59);stroke:rgb(212,215,213);stroke-width:26.47px;"/>
                </g>
                <g transform="matrix(0.758336,0,0,0.758336,1301.58,1673.53)">
                    <circle cx="1114.76" cy="4244.37" r="80.322" style="fill:rgb(47,127,59);stroke:rgb(212,215,213);stroke-width:26.47px;"/>
                </g>
                <g transform="matrix(0.758336,0,0,0.758336,1484.62,1657.06)">
                    <circle cx="1114.76" cy="4244.37" r="80.322" style="fill:rgb(47,127,59);stroke:rgb(212,215,213);stroke-width:26.47px;"/>
                </g>
                <g transform="matrix(0.758336,0,0,0.758336,1646.05,1606.37)">
                    <circle cx="1114.76" cy="4244.37" r="80.322" style="fill:rgb(47,127,59);stroke:rgb(212,215,213);stroke-width:26.47px;"/>
                </g>
                <g transform="matrix(0.758336,0,0,0.758336,1800.44,1512.33)">
                    <circle cx="1114.76" cy="4244.37" r="80.322" style="fill:rgb(47,127,59);stroke:rgb(212,215,213);stroke-width:26.47px;"/>
                </g>
                <g transform="matrix(0.758336,0,0,0.758336,1932.94,1415.8)">
                    <circle cx="1114.76" cy="4244.37" r="80.322" style="fill:rgb(47,127,59);stroke:rgb(212,215,213);stroke-width:26.47px;"/>
                </g>
                <g transform="matrix(0.758336,0,0,0.758336,2047.37,1290.62)">
                    <circle cx="1114.76" cy="4244.37" r="80.322" style="fill:rgb(47,127,59);stroke:rgb(212,215,213);stroke-width:26.47px;"/>
                </g>
                <g transform="matrix(0.758336,0,0,0.758336,2135.71,1149.66)">
                    <circle cx="1114.76" cy="4244.37" r="80.322" style="fill:rgb(47,127,59);stroke:rgb(212,215,213);stroke-width:26.47px;"/>
                </g>
                <g transform="matrix(-0.758336,0,0,0.758336,3894,990.98)">
                    <circle cx="1114.76" cy="4244.37" r="80.322" style="fill:rgb(47,127,59);stroke:rgb(212,215,213);stroke-width:26.47px;"/>
                </g>
                <g transform="matrix(0.758336,0,0,0.758336,268.799,833.213)">
                    <circle cx="1114.76" cy="4244.37" r="80.322" style="fill:rgb(47,127,59);stroke:rgb(212,215,213);stroke-width:26.47px;"/>
                </g>
                <g transform="matrix(-0.758336,0,0,0.758336,3932.93,828.072)">
                    <circle cx="1114.76" cy="4244.37" r="80.322" style="fill:rgb(47,127,59);stroke:rgb(212,215,213);stroke-width:26.47px;"/>
                </g>
                <g transform="matrix(0.758336,0,0,0.758336,255.812,668.495)">
                    <circle cx="1114.76" cy="4244.37" r="80.322" style="fill:rgb(47,127,59);stroke:rgb(212,215,213);stroke-width:26.47px;"/>
                </g>
                <g transform="matrix(-0.758336,0,0,0.758336,3945.91,663.355)">
                    <circle cx="1114.76" cy="4244.37" r="80.322" style="fill:rgb(47,127,59);stroke:rgb(212,215,213);stroke-width:26.47px;"/>
                </g>
                <g transform="matrix(0.758336,0,0,0.758336,270.745,503.429)">
                    <circle cx="1114.76" cy="4244.37" r="80.322" style="fill:rgb(47,127,59);stroke:rgb(212,215,213);stroke-width:26.47px;"/>
                </g>
                <g transform="matrix(-0.758336,0,0,0.758336,3930.98,498.289)">
                    <circle cx="1114.76" cy="4244.37" r="80.322" style="fill:rgb(47,127,59);stroke:rgb(212,215,213);stroke-width:26.47px;"/>
                </g>
                <g transform="matrix(0.758336,0,0,0.758336,322.492,348.666)">
                    <circle cx="1114.76" cy="4244.37" r="80.322" style="fill:rgb(47,127,59);stroke:rgb(212,215,213);stroke-width:26.47px;"/>
                </g>
                <g transform="matrix(-0.758336,0,0,0.758336,3879.23,343.526)">
                    <circle cx="1114.76" cy="4244.37" r="80.322" style="fill:rgb(47,127,59);stroke:rgb(212,215,213);stroke-width:26.47px;"/>
                </g>
                <g transform="matrix(0.758336,0,0,0.758336,384.394,205.269)">
                    <circle cx="1114.76" cy="4244.37" r="80.322" style="fill:rgb(47,127,59);stroke:rgb(212,215,213);stroke-width:26.47px;"/>
                </g>
                <g transform="matrix(-0.758336,0,0,0.758336,3817.33,200.129)">
                    <circle cx="1114.76" cy="4244.37" r="80.322" style="fill:rgb(47,127,59);stroke:rgb(212,215,213);stroke-width:26.47px;"/>
                </g>
                <g transform="matrix(0.758336,0,0,0.758336,461.807,58.1537)">
                    <circle cx="1114.76" cy="4244.37" r="80.322" style="fill:rgb(47,127,59);stroke:rgb(212,215,213);stroke-width:26.47px;"/>
                </g>
                <g transform="matrix(-0.758336,0,0,0.758336,3739.92,53.0132)">
                    <circle cx="1114.76" cy="4244.37" r="80.322" style="fill:rgb(47,127,59);stroke:rgb(212,215,213);stroke-width:26.47px;"/>
                </g>
                <g transform="matrix(0.758336,0,0,0.758336,554.489,-78.0481)">
                    <circle cx="1114.76" cy="4244.37" r="80.322" style="fill:rgb(47,127,59);stroke:rgb(212,215,213);stroke-width:26.47px;"/>
                </g>
                <g transform="matrix(-0.758336,0,0,0.758336,3647.24,-83.1886)">
                    <circle cx="1114.76" cy="4244.37" r="80.322" style="fill:rgb(47,127,59);stroke:rgb(212,215,213);stroke-width:26.47px;"/>
                </g>
                <g transform="matrix(0.758336,0,0,0.758336,652.618,-216.212)">
                    <circle cx="1114.76" cy="4244.37" r="80.322" style="fill:rgb(47,127,59);stroke:rgb(212,215,213);stroke-width:26.47px;"/>
                </g>
                <g transform="matrix(-0.758336,0,0,0.758336,3549.11,-221.353)">
                    <circle cx="1114.76" cy="4244.37" r="80.322" style="fill:rgb(47,127,59);stroke:rgb(212,215,213);stroke-width:26.47px;"/>
                </g>
                <g transform="matrix(0.758336,0,0,0.758336,756.437,-350.059)">
                    <circle cx="1114.76" cy="4244.37" r="80.322" style="fill:rgb(47,127,59);stroke:rgb(212,215,213);stroke-width:26.47px;"/>
                </g>
                <g transform="matrix(-0.758336,0,0,0.758336,3445.29,-355.2)">
                    <circle cx="1114.76" cy="4244.37" r="80.322" style="fill:rgb(47,127,59);stroke:rgb(212,215,213);stroke-width:26.47px;"/>
                </g>
                <g transform="matrix(0.758336,0,0,0.758336,852.434,-473.719)">
                    <circle cx="1114.76" cy="4244.37" r="80.322" style="fill:rgb(47,127,59);stroke:rgb(212,215,213);stroke-width:26.47px;"/>
                </g>
                <g transform="matrix(-0.758336,0,0,0.758336,3349.29,-478.86)">
                    <circle cx="1114.76" cy="4244.37" r="80.322" style="fill:rgb(47,127,59);stroke:rgb(212,215,213);stroke-width:26.47px;"/>
                </g>
                <g transform="matrix(0.758336,0,0,0.758336,953.543,-596.361)">
                    <circle cx="1114.76" cy="4244.37" r="80.322" style="fill:rgb(47,127,59);stroke:rgb(212,215,213);stroke-width:26.47px;"/>
                </g>
                <g transform="matrix(-0.758336,0,0,0.758336,3248.18,-601.501)">
                    <circle cx="1114.76" cy="4244.37" r="80.322" style="fill:rgb(47,127,59);stroke:rgb(212,215,213);stroke-width:26.47px;"/>
                </g>
                <g transform="matrix(0.723976,0,0,0.723976,1085.2,-573.595)">
                    <circle cx="1114.76" cy="4244.37" r="80.322" style="fill:rgb(47,127,59);stroke:rgb(212,215,213);stroke-width:27.78px;"/>
                </g>
                <g transform="matrix(-0.723976,0,0,0.723976,3116.53,-578.736)">
                    <circle cx="1114.76" cy="4244.37" r="80.322" style="fill:rgb(47,127,59);stroke:rgb(212,215,213);stroke-width:27.78px;"/>
                </g>
                <g transform="matrix(0.665488,0,0,0.665488,1353.07,-539.684)">
                    <circle cx="1114.76" cy="4244.37" r="80.322" style="fill:rgb(47,127,59);stroke:rgb(212,215,213);stroke-width:30.31px;"/>
                </g>
                <g transform="matrix(0.641055,0,0,0.641055,1281.44,-334.144)">
                    <circle cx="1114.76" cy="4244.37" r="80.322" style="fill:rgb(47,127,59);stroke:rgb(212,215,213);stroke-width:31.5px;"/>
                </g>
                <g transform="matrix(-0.641055,0,0,0.641055,2920.28,-339.285)">
                    <circle cx="1114.76" cy="4244.37" r="80.322" style="fill:rgb(47,127,59);stroke:rgb(212,215,213);stroke-width:31.5px;"/>
                </g>
                <g transform="matrix(1,0,0,1,-12.266,-61.6548)">
                    <path d="M2682.69,3349.07C2682.69,3386.1 2652.09,3416.15 2614.41,3416.15L1601.04,3416.15C1563.35,3416.15 1532.75,3386.1 1532.75,3349.07C1532.75,3312.05 1563.35,3281.99 1601.04,3281.99L2614.41,3281.99C2652.09,3281.99 2682.69,3312.05 2682.69,3349.07Z" style="fill:rgb(47,127,59);stroke:rgb(212,215,213);stroke-width:32.33px;"/>
                </g>
                <g transform="matrix(1.10933,0,0,1,-242.71,71.9375)">
                    <path d="M2682.69,3349.07C2682.69,3386.1 2655.11,3416.15 2621.14,3416.15L1594.31,3416.15C1560.33,3416.15 1532.75,3386.1 1532.75,3349.07C1532.75,3312.05 1560.33,3281.99 1594.31,3281.99L2621.14,3281.99C2655.11,3281.99 2682.69,3312.05 2682.69,3349.07Z" style="fill:rgb(47,127,59);stroke:rgb(212,215,213);stroke-width:30.56px;"/>
                </g>
                <g transform="matrix(1.18267,0,0,1.04808,-399.576,48.8504)">
                    <path d="M2682.69,3349.07C2682.69,3386.1 2655.57,3416.15 2622.18,3416.15L1593.27,3416.15C1559.87,3416.15 1532.75,3386.1 1532.75,3349.07C1532.75,3312.05 1559.87,3281.99 1593.27,3281.99L2622.18,3281.99C2655.57,3281.99 2682.69,3312.05 2682.69,3349.07Z" style="fill:rgb(47,127,59);stroke:rgb(212,215,213);stroke-width:28.83px;"/>
                </g>
                <g transform="matrix(1,0,0,1,-2,-51.922)">
                    <circle cx="2099.44" cy="3477.54" r="133.56" style="fill:rgb(47,127,59);stroke:rgb(212,215,213);stroke-width:32.33px;"/>
                </g>
                <g transform="matrix(1,-2.87815e-16,6.86628e-17,0.0341071,-616.584,5811.31)">
                    <path d="M2817.53,6470.69C2826.04,8607.67 2853.32,15484.9 2853.32,15484.9L2853.11,15484.9C2853.42,15486.8 2853.57,15488.7 2853.57,15490.6C2853.57,15526 2635.22,19358.4 2635.22,19323.1C2635.22,19321.3 2613.76,8562.73 2609.56,6440.8C2602.88,6458.94 2598.82,6470.92 2598.82,6470.92C2558.69,6470.92 2526.11,5492.16 2526.11,4286.6C2526.11,3081.03 2565.35,1482.45 2710.39,1482.45C2832.96,1482.45 2889.17,3081.03 2889.17,4286.6C2889.17,5481.41 2857.17,6453.45 2817.53,6470.69Z" style="fill:rgb(47,127,59);"/>
                </g>
                <g transform="matrix(1,-2.2308e-16,6.97253e-17,0.25187,-616.584,6727.72)">
                    <path d="M2591.62,5848.1C2591.45,5846.7 2591.37,5845.28 2591.37,5843.86C2591.37,5808.48 2820.24,5228.96 2820.24,5264.34C2820.24,5265.76 2853.32,15484.9 2853.32,15484.9L2853.11,15484.9C2853.42,15486.8 2853.57,15488.7 2853.57,15490.6C2853.57,15526 2801.87,15554.7 2738.2,15554.7C2674.52,15554.7 2622.82,15526 2622.82,15490.6C2622.82,15488.7 2622.98,15486.8 2623.28,15484.9L2623.07,15484.9L2591.62,5848.1Z" style="fill:rgb(47,127,59);"/>
                </g>
                <g transform="matrix(0.914913,0.57977,-0.600789,0.914913,4482.67,-571.335)">
                    <g transform="matrix(0.849903,-0.51764,0.286315,0.453649,-2415.74,4525.09)">
                        <path d="M2094.66,5085L2094.66,5292.15" style="fill:none;stroke:rgb(212,215,213);stroke-width:15.67px;"/>
                    </g>
                    <g transform="matrix(0.849903,-0.51764,0.356011,0.564078,-2727.39,3921.68)">
                        <path d="M2094.66,5085L2094.66,5292.15" style="fill:none;stroke:rgb(212,215,213);stroke-width:15.67px;"/>
                    </g>
                    <g transform="matrix(0.849903,-0.51764,0.424503,0.672598,-3031.5,3327.4)">
                        <path d="M2094.66,5085L2094.66,5292.15" style="fill:none;stroke:rgb(212,215,213);stroke-width:15.67px;"/>
                    </g>
                    <g transform="matrix(0.849903,-0.51764,0.495404,0.784937,-3348.11,2713.3)">
                        <path d="M2094.66,5085L2094.66,5292.15" style="fill:none;stroke:rgb(212,215,213);stroke-width:15.67px;"/>
                    </g>
                    <g transform="matrix(0.849903,-0.51764,0.599948,0.950581,-3835.68,1828.34)">
                        <path d="M2094.66,5085L2094.66,5292.15" style="fill:none;stroke:rgb(212,215,213);stroke-width:15.67px;"/>
                    </g>
                    <g transform="matrix(0.849903,-0.51764,0.634796,1.0058,-3968.84,1504.91)">
                        <path d="M2094.66,5085L2094.66,5292.15" style="fill:none;stroke:rgb(212,215,213);stroke-width:15.67px;"/>
                    </g>
                    <g transform="matrix(0.849903,-0.51764,0.599948,0.950581,-3733.16,1765.9)">
                        <path d="M2094.66,5085L2094.66,5292.15" style="fill:none;stroke:rgb(212,215,213);stroke-width:15.67px;"/>
                    </g>
                    <g transform="matrix(0.849903,-0.51764,0.495404,0.784937,-3143.07,2588.41)">
                        <path d="M2094.66,5085L2094.66,5292.15" style="fill:none;stroke:rgb(212,215,213);stroke-width:15.67px;"/>
                    </g>
                    <g transform="matrix(0.849903,-0.51764,0.424503,0.672598,-2723.93,3140.07)">
                        <path d="M2094.66,5085L2094.66,5292.15" style="fill:none;stroke:rgb(212,215,213);stroke-width:15.67px;"/>
                    </g>
                    <g transform="matrix(0.849903,-0.51764,0.356011,0.564078,-2317.3,3671.92)">
                        <path d="M2094.66,5085L2094.66,5292.15" style="fill:none;stroke:rgb(212,215,213);stroke-width:15.67px;"/>
                    </g>
                    <g transform="matrix(0.849903,-0.51764,0.286315,0.453649,-1904.41,4213.67)">
                        <path d="M2094.66,5085L2094.66,5292.15" style="fill:none;stroke:rgb(212,215,213);stroke-width:15.67px;"/>
                    </g>
                    <g transform="matrix(0.736839,-0.448777,0.248226,0.393299,-1433.56,4368.16)">
                        <path d="M2094.66,5085L2094.66,5292.15" style="fill:none;stroke:rgb(212,215,213);stroke-width:15.67px;"/>
                    </g>
                    <g transform="matrix(0.736839,-0.448777,0.248226,0.393299,-2016.72,4710.64)">
                        <path d="M2094.66,5085L2094.66,5292.15" style="fill:none;stroke:rgb(212,215,213);stroke-width:15.67px;"/>
                    </g>
                </g>
                <g transform="matrix(1.33146,0,0,1.21403,463.304,-1332.48)">
                    <path d="M1129.52,5844C1100.28,5835.06 1075.03,5821.84 1055.91,5805.58C1032.97,5786.07 1019,5762.28 1019,5736.26C1019,5710.24 1032.97,5686.44 1055.91,5666.93C1092.66,5635.68 1152.06,5615.66 1218.92,5615.66C1285.79,5615.66 1345.18,5635.68 1381.94,5666.93C1404.87,5686.44 1418.85,5710.24 1418.85,5736.26C1418.85,5762.28 1404.87,5786.07 1381.94,5805.58C1363.91,5820.91 1340.44,5833.53 1313.32,5842.42C1303.95,5806.69 1277.36,5778.1 1242.58,5769C1235.13,5766.85 1228.14,5765.6 1222.23,5765.6C1216.31,5765.6 1209.26,5766.9 1201.57,5768.45C1201.4,5768.49 1201.23,5768.53 1201.06,5768.57C1165.63,5778.01 1138.69,5807.41 1129.52,5844Z" style="fill:rgb(47,127,59);"/>
                </g>
                <path d="M2188.55,5766.55C2191.19,5775.63 2192.59,5785.18 2192.59,5794.99C2192.59,5795.08 2192.6,5795.17 2192.6,5795.26C2193.13,5818.96 2193.32,5842.73 2193.39,5856.65C2166.04,5848.21 2132.88,5843.03 2093.59,5843.03C2049.99,5843.03 2014.92,5847.66 1986.89,5855.36L1986.89,5795.93C1986.89,5786.33 1988.22,5776.97 1990.71,5768.06C2000.74,5732.19 2029.72,5703.36 2067.79,5693.92C2076.41,5692.33 2084.14,5690.9 2090.66,5690.9C2096.75,5690.9 2103.93,5692.22 2111.61,5694.25C2111.71,5694.27 2111.81,5694.3 2111.91,5694.32C2149.54,5703.25 2178.32,5731.37 2188.55,5766.55Z" style="fill:rgb(47,127,59);"/>
            </g>
        </g>
        <g transform="matrix(1,0,0,1,2479.3,5.68434e-14)">
            <g transform="matrix(0.408543,0.266878,-0.271673,0.415882,775.441,451.303)">
                <path d="M0,85.508C-7.694,92.245 -16.987,95.955 -26.166,95.955C-28.395,95.955 -30.597,95.729 -32.711,95.283C-42.461,93.227 -50.686,87.181 -57.155,77.313L-61.676,70.418L-53.781,72.795C-41.224,76.579 -27.628,75.762 -15.497,70.494C-14.549,70.083 -13.597,69.638 -12.665,69.172L-10.819,68.25L-9.298,69.643C-5.364,73.244 -1.939,77.421 0.605,81.723L1.874,83.867L0,85.508ZM-53.569,90.943C-55.977,95.227 -58.998,99.154 -62.552,102.615L-64.646,104.656L-66.739,102.615C-70.292,99.154 -73.313,95.228 -75.719,90.948L-76.813,89.003L-75.264,87.396C-72.353,84.375 -69.65,80.762 -67.233,76.657L-64.649,72.272L-62.063,76.656C-59.644,80.758 -56.938,84.369 -54.025,87.392L-52.475,88.997L-53.569,90.943ZM-96.58,95.283C-98.694,95.729 -100.896,95.955 -103.125,95.955C-112.303,95.955 -121.595,92.245 -129.291,85.508L-131.165,83.865L-129.896,81.722C-127.349,77.419 -123.925,73.242 -119.993,69.644L-118.474,68.253L-116.63,69.171C-115.674,69.648 -114.721,70.093 -113.796,70.494C-101.664,75.761 -88.066,76.576 -75.506,72.785L-67.621,70.407L-72.129,77.301C-78.586,87.174 -86.813,93.224 -96.58,95.283M-140.322,37.821L-141.379,35.069L-138.645,33.965C-131.313,31.005 -123.281,29.715 -115.409,30.237L-113.481,30.365L-112.8,32.172C-111.316,36.103 -109.383,39.877 -107.056,43.386C-100.64,53.063 -91.575,60.388 -80.842,64.571L-71.312,68.283L-81.337,70.307C-84.696,70.984 -88.127,71.327 -91.536,71.327C-98.659,71.327 -105.635,69.866 -112.271,66.986C-125.316,61.321 -135.279,50.965 -140.322,37.821M-111.406,1.597L-110.793,-1.273L-107.91,-0.722C-99.904,0.809 -92.572,4.088 -86.116,9.023L-84.637,10.152L-84.992,11.978C-85.801,16.139 -86.211,20.219 -86.211,24.103C-86.211,35.792 -82.646,46.987 -75.901,56.477L-70.092,64.651L-79.435,61.01C-89.441,57.112 -97.889,50.287 -103.866,41.273C-111.677,29.494 -114.355,15.404 -111.406,1.597M-66.819,-16.869L-64.646,-19.154L-62.472,-16.869C-53.016,-6.93 -46.906,9.153 -46.906,24.102C-46.906,38.234 -52.461,51.456 -62.547,61.332L-64.646,63.39L-66.745,61.332C-76.831,51.456 -82.385,38.234 -82.385,24.102C-82.385,9.154 -76.275,-6.928 -66.819,-16.869M-44.299,11.977L-44.653,10.151L-43.175,9.021C-36.714,4.084 -29.381,0.806 -21.382,-0.722L-18.498,-1.274L-17.885,1.597C-14.936,15.404 -17.613,29.495 -25.425,41.273C-31.402,50.287 -39.851,57.112 -49.857,61.011L-59.202,64.654L-53.392,56.478C-46.646,46.987 -43.079,35.792 -43.079,24.102C-43.079,20.219 -43.489,16.139 -44.299,11.977M-15.81,30.365L-13.884,30.237C-6.009,29.719 2.024,31.008 9.354,33.965L12.088,35.069L11.031,37.821C5.988,50.964 -3.975,61.321 -17.021,66.985C-23.659,69.866 -30.64,71.328 -37.769,71.328C-41.173,71.328 -44.601,70.986 -47.955,70.311L-57.989,68.291L-48.453,64.574C-37.72,60.392 -28.653,53.065 -22.234,43.386C-19.907,39.875 -17.975,36.102 -16.491,32.171L-15.81,30.365ZM5.736,83.18C3.261,78.103 -0.377,73.086 -4.782,68.672L-7.247,66.203L-4.437,64.136C5.579,56.769 12.691,46.57 16.13,34.643C16.384,33.762 15.977,32.822 15.16,32.406C7.186,28.346 -1.84,26.227 -10.886,26.301L-14.525,26.327L-13.856,22.75C-12.213,13.963 -12.725,4.771 -15.338,-3.832C-15.604,-4.707 -16.454,-5.271 -17.371,-5.178C-26.453,-4.223 -34.882,-1.207 -42.419,3.786L-45.645,5.923L-46.911,2.268C-50.548,-8.228 -56.413,-17.199 -63.427,-22.992C-64.133,-23.575 -65.159,-23.575 -65.863,-22.992C-72.876,-17.201 -78.742,-8.23 -82.379,2.268L-83.646,5.923L-86.872,3.786C-94.409,-1.207 -102.837,-4.223 -111.921,-5.179C-112.835,-5.277 -113.685,-4.709 -113.951,-3.832C-116.566,4.77 -117.079,13.962 -115.434,22.75L-114.765,26.327L-118.404,26.301C-127.486,26.256 -136.483,28.35 -144.451,32.407C-145.267,32.822 -145.675,33.762 -145.421,34.643C-141.98,46.571 -134.869,56.77 -124.855,64.137L-122.045,66.203L-124.509,68.672C-128.916,73.087 -132.553,78.105 -135.029,83.182C-135.398,83.939 -135.25,84.752 -134.589,85.601C-131.716,89.282 -115.785,103.244 -95.792,99.026L-95.791,99.026C-90.993,98.015 -86.487,96.119 -82.401,93.394L-79.792,91.654L-78.169,94.337C-74.935,99.688 -70.794,104.465 -65.864,108.537C-65.203,109.081 -64.088,109.083 -63.429,108.537C-58.498,104.466 -54.357,99.689 -51.121,94.335L-49.498,91.652L-46.889,93.392C-42.8,96.119 -38.295,98.015 -33.499,99.026C-14.947,102.944 1.432,90.555 5.297,85.599C5.957,84.752 6.105,83.938 5.736,83.18" style="fill:rgb(212,215,213);fill-rule:nonzero;"/>
            </g>
        </g>
        <g transform="matrix(1,0,0,1,2479.3,5.68434e-14)">
            <g transform="matrix(0.57065,0,0,0.57065,-134.117,139.956)">
                <g transform="matrix(273.625,0,0,273.625,2191.45,966)">
                </g>
                <text x="339px" y="966px" style="font-family:'GISTTMOTHeenaBold', 'GIST-TMOTHeena';font-weight:700;font-size:273.625px;fill:rgb(47,127,59);">அயிலவன்</text>
            </g>
        </g>
    </g>
</svg>
