<?xml version="1.0" encoding="UTF-8" standalone="no"?>
<!DOCTYPE svg PUBLIC "-//W3C//DTD SVG 1.1//EN" "http://www.w3.org/Graphics/SVG/1.1/DTD/svg11.dtd">
<svg width="100%" height="100%" viewBox="0 0 300 300" version="1.1" xmlns="http://www.w3.org/2000/svg" xmlns:xlink="http://www.w3.org/1999/xlink" xml:space="preserve" xmlns:serif="http://www.serif.com/" style="fill-rule:evenodd;clip-rule:evenodd;stroke-linejoin:round;stroke-miterlimit:2;">
    <g transform="matrix(1,0,0,1,-450,-68.4318)">
        <path d="M635.749,271.704L635.749,208.828C637.806,208.949 639.538,209.262 641.847,209.959C650.349,212.522 657.616,219.607 660.789,227.938C662.708,232.976 663.374,237.596 663.001,242.953C662.681,247.551 661.189,252.49 658.885,256.572C653.99,265.241 645.4,270.978 635.749,271.704ZM612.637,269.139C609.621,268.123 607.521,267.224 604.629,265.708C601.759,264.204 599.005,262.477 596.399,260.551C592.255,257.489 587.211,252.421 584.141,248.257C582.19,245.611 580.436,242.82 578.898,239.915C577.353,236.998 576.36,234.738 575.306,231.737C570.882,219.146 570.41,205.812 574.018,193.058C577.552,180.565 584.712,169.419 594.555,160.781C603.787,152.68 615.442,147.339 627.609,146.032L627.609,153.671C627.609,165.547 627.61,177.422 627.61,189.297L627.61,201.237C623.052,202.028 618.633,203.703 614.639,206.278C611.96,208.004 609.504,210.07 607.338,212.407C605.189,214.726 603.327,217.306 601.788,220.066C600.247,222.829 599.03,225.771 598.156,228.812C597.8,230.049 597.5,231.303 597.258,232.568C597.136,233.21 597.028,233.855 596.935,234.502C596.889,234.818 596.848,235.135 596.809,235.453C596.359,239.178 596.463,243.128 597.974,246.636C598.334,247.473 598.772,248.274 599.27,249.037C601.311,252.167 604.178,253.731 607.868,253.731C610.7,253.731 612.924,252.941 614.54,251.359C616.153,249.778 616.961,247.621 616.961,244.886C616.961,242.153 616.269,240.11 614.886,238.759C613.502,237.409 611.837,236.733 609.894,236.733C608.194,236.733 606.483,237.01 604.759,237.564C605.482,228.805 609.453,220.725 616.396,214.991C619.477,212.447 623.423,210.508 627.61,209.494L627.61,272.106C622.518,271.804 617.79,270.877 612.637,269.139ZM602.757,339.504C590.823,339.165 581.455,328.126 581.832,314.848C583.957,316.67 591.587,322.762 603.164,323.111C614.814,323.462 622.833,317.767 625.048,316.077C624.671,329.354 614.69,339.844 602.757,339.504ZM549.182,305.748C548.788,305.467 548.452,305.107 548.199,304.695C543.522,297.086 551.794,289.37 559.06,294.564C559.454,294.845 559.789,295.205 560.042,295.617C564.718,303.226 556.447,310.94 549.182,305.748ZM636.32,86.099C640.168,86.603 643.801,88.021 647.167,90.421C648.885,91.645 650.859,93.56 652.375,95.53C652.817,96.105 653.62,97.335 654.164,98.296C654.503,98.894 654.821,99.506 655.116,100.128C655.397,100.722 655.64,101.298 655.753,101.607C659.426,111.585 656.966,122.592 649.305,129.706C647.55,131.335 644.806,133.135 642.704,134.039C640.579,134.952 638.431,135.517 636.319,135.792L636.319,90.957L636.32,86.099ZM671.126,240.25C671.138,225.241 661.522,211.007 648.252,204.263C644.341,202.275 640.111,200.938 635.717,200.423C635.742,181.657 635.768,162.891 635.793,144.124C647.702,142.756 657.807,134.748 662.559,123.743C666.815,113.887 665.615,99.251 658.975,90.591C652.839,82.589 643.255,77.702 633.209,78.368C632.689,78.403 627.652,78.864 627.651,79.291C627.619,98.751 627.586,118.21 627.554,137.669C604.489,140.954 583.231,155.554 572.218,176.084C561.205,196.614 560.852,222.594 571.636,243.245C582.42,263.896 604.142,278.514 627.365,280.358C627.916,292.87 626.259,303.945 616.729,309.917C607.201,315.887 593.191,313.787 586.457,304.781C583.587,300.943 582.078,296.235 579.283,292.343C573.454,284.225 561.858,280.83 552.571,284.524C543.766,288.026 537.782,296.755 528.874,299.99C534.896,301.162 535.863,309.146 536.587,315.237C539.058,336.037 556.239,354.224 576.866,357.872C585.672,359.429 594.845,358.27 603.135,354.987C611.47,351.686 618.99,346.233 624.527,339.164C625.908,337.4 627.164,335.538 628.273,333.591C633.161,325.018 635.538,315.195 635.768,305.428C635.875,300.952 636.018,294.89 636.057,289.809L636.058,289.809L636.058,289.804C636.07,288.088 636.072,286.484 636.058,285.092L636.058,279.969C655.183,277.537 671.11,259.548 671.126,240.25Z" style="fill:rgb(25,101,25);fill-rule:nonzero;"/>
    </g>
</svg>
