<?xml version="1.0" encoding="UTF-8" standalone="no"?>
<!DOCTYPE svg PUBLIC "-//W3C//DTD SVG 1.1//EN" "http://www.w3.org/Graphics/SVG/1.1/DTD/svg11.dtd">
<svg width="100%" height="100%" viewBox="0 0 300 300" version="1.1" xmlns="http://www.w3.org/2000/svg" xmlns:xlink="http://www.w3.org/1999/xlink" xml:space="preserve" xmlns:serif="http://www.serif.com/" style="fill-rule:evenodd;clip-rule:evenodd;stroke-linejoin:round;stroke-miterlimit:2;">
    <g transform="matrix(0.600988,0,0,0.600988,-1255.15,-907.564)">
        <path d="M2528.19,1979.53L2528.19,1970.28C2528.19,1970.28 2430.1,1942.41 2337.51,1943.51C2246.01,1944.6 2147.94,1970.28 2147.94,1970.28L2147.94,1979.53C2147.94,1979.53 2246.01,1953.85 2337.51,1952.76C2430.1,1951.65 2528.19,1979.53 2528.19,1979.53Z" style="fill:rgb(25,101,25);"/>
    </g>
    <g transform="matrix(0.600988,0,0,0.600988,-1255.15,-914.564)">
        <path d="M2350.63,1810.15L2330.05,1810.15L2330.05,1780.39L2350.63,1780.39L2350.63,1810.15ZM2447.01,1766.79L2234.77,1766.79L2220.52,1821.72L2461.26,1821.72L2447.01,1766.79Z" style="fill:none;fill-rule:nonzero;stroke:rgb(25,101,25);stroke-width:6.92px;"/>
    </g>
    <g transform="matrix(0.600988,0,0,0.600988,-1255.15,-911.564)">
        <path d="M2353.4,1885.6L2327.27,1885.6L2327.27,1845.74L2353.4,1845.74L2353.4,1885.6ZM2463.55,1830.54L2218.23,1830.54L2200.84,1897.59L2480.94,1897.59L2463.55,1830.54Z" style="fill:none;fill-rule:nonzero;stroke:rgb(25,101,25);stroke-width:6.92px;"/>
    </g>
    <g transform="matrix(0.600988,0,0,0.600988,-1255.15,-922.564)">
        <path d="M2350.63,1692.21L2330.05,1692.21L2330.05,1662.45L2350.63,1662.45L2350.63,1692.21ZM2417.08,1651.43L2264.7,1651.43L2252.12,1699.92L2429.66,1699.92L2417.08,1651.43Z" style="fill:none;fill-rule:nonzero;stroke:rgb(25,101,25);stroke-width:6.92px;"/>
    </g>
    <g transform="matrix(0.600988,0,0,0.600988,-1255.15,-907.564)">
        <path d="M2345.6,1934.34C2403.18,1934.34 2461.4,1945.65 2495.5,1953.68L2483.23,1906.4L2198.55,1906.4L2186.14,1954.22C2221.11,1946.44 2281.66,1935.1 2340.26,1934.38C2342.03,1934.35 2343.82,1934.34 2345.6,1934.34Z" style="fill:none;fill-rule:nonzero;stroke:rgb(25,101,25);stroke-width:6.92px;"/>
    </g>
    <g transform="matrix(0.600988,0,0,0.600988,-1255.15,-917.564)">
        <path d="M2350.63,1749.16L2330.05,1749.16L2330.05,1719.4L2350.63,1719.4L2350.63,1749.16ZM2431.47,1706.91L2250.31,1706.91L2236.58,1759.8L2445.2,1759.8L2431.47,1706.91Z" style="fill:none;fill-rule:nonzero;stroke:rgb(25,101,25);stroke-width:6.92px;"/>
    </g>
    <g transform="matrix(0.600988,0,0,0.600988,-1253.8,-927.564)">
        <path d="M2265.29,1647.39L2314.88,1647.58C2314.57,1646.78 2314.39,1645.92 2314.39,1645.01L2314.39,1644.82C2314.39,1642.07 2315.95,1639.71 2318.22,1638.51L2318.32,1637.69C2318.47,1636.49 2322.14,1616.79 2340.4,1616.03C2340.63,1616.02 2340.87,1616.01 2341.1,1616.01C2358.88,1616.01 2364.14,1636.28 2364.35,1637.52L2364.57,1638.73C2366.61,1640 2367.99,1642.24 2367.99,1644.82L2367.99,1645.01C2367.99,1645.92 2367.8,1646.78 2367.5,1647.58L2399.66,1647.58L2416.46,1647.39L2416.46,1599.92C2416.61,1595.65 2416.38,1573.45 2397.37,1573.17C2397.37,1573.17 2388.9,1573.63 2387.45,1577.21C2386.07,1580.61 2387.18,1583.92 2390.48,1585.3C2393.79,1586.67 2395.69,1584.41 2397.92,1585.85C2401.78,1588.33 2402.14,1592.15 2401.78,1595.49C2401.19,1600.96 2392.35,1605.41 2385.97,1605.87L2295.79,1605.87C2289.4,1605.41 2280.56,1600.96 2279.97,1595.49C2279.61,1592.15 2279.97,1588.33 2283.83,1585.85C2286.06,1584.41 2287.96,1586.67 2291.27,1585.3C2294.58,1583.92 2295.68,1580.61 2294.3,1577.21C2292.85,1573.63 2284.38,1573.17 2284.38,1573.17C2264.55,1573.72 2264.82,1594.94 2265.29,1599.92L2265.29,1647.39Z" style="fill:none;fill-rule:nonzero;stroke:rgb(25,101,25);stroke-width:6.93px;"/>
    </g>
</svg>
